# xmcd CD database file generated by LOLA_Freedb v0.9beta0
# 
# Track frame offsets:
#      150
#      18392
#      34537
#      45847
#      65910
#      79280
#      98627
#      113075
#      125962
#      136790
#      153467
#      165987
# 
# Disc length: 2381 seconds
# 
# Revision: 0 
# Processed by: cddbd v1.5.1PL0 Copyright (c) Steve Scherf et al.
# Submitted via: LOLA_Freedb v0.9beta0
# 
DISCID=93094b0c
DTITLE=Daniel T. Coates - takin´ my last chance
DYEAR=1994
DGENRE=
TTITLE0=Daniel T. Coates - takin´ my last chance
TTITLE1=Daniel T. Coates - Grandpa´s house
TTITLE2=Daniel T. Coates - old car
TTITLE3=Daniel T. Coates - man´s job
TTITLE4=Daniel T. Coates - stampede
TTITLE5=Daniel T. Coates - when you gonna´ settle down
TTITLE6=Daniel T. Coates - once i drove a team of horses
TTITLE7=Daniel T. Coates - loves to dance
TTITLE8=Daniel T. Coates - cheatin´ heart attack
TTITLE9=Daniel T. Coates - get her off my mind
TTITLE10=Daniel T. Coates - every little thing i see
TTITLE11=Daniel T. Coates - der letzte ami in deutschland
EXTD=
EXTT0=
EXTT1=
EXTT2=
EXTT3=
EXTT4=
EXTT5=
EXTT6=
EXTT7=
EXTT8=
EXTT9=
EXTT10=
EXTT11=
PLAYORDER=
